<svg width="32" height="32" viewBox="0 0 32 32" fill="none" xmlns="http://www.w3.org/2000/svg">
  <rect width="32" height="32" rx="8" fill="#6B8E6B"/>
  <path d="M11 20C9.9 20 9 20.9 9 22C9 23.1 9.9 24 11 24S13 23.1 13 22C13 20.9 12.1 20 11 20ZM22 8.3L19.7 6C19.3 5.6 18.7 5.6 18.3 6L9.4 14.9C9.3 15 9.2 15.1 9.1 15.2C9.1 15.4 9 15.5 9 15.7C9 16.3 9.5 16.8 10.1 16.7C10.2 16.6 10.4 16.6 10.5 16.5C10.7 16.8 11 17 11.3 17.2C11.4 17.3 11.6 17.3 11.7 17.3C12 17.2 12.3 16.9 12.3 16.6C12.3 16.4 12.2 16.3 12.1 16.1L22 6.2C22.4 5.8 22.4 5.2 22 4.8Z" fill="white" transform="translate(1, -1) scale(1.1)"/>
</svg>
